<?xml version="1.0" encoding="utf-8"?>
<!-- Generator: Adobe Illustrator 21.0.2, SVG Export Plug-In . SVG Version: 6.00 Build 0)  -->
<svg version="1.1" id="Layer_1" xmlns="http://www.w3.org/2000/svg" xmlns:xlink="http://www.w3.org/1999/xlink" x="0px" y="0px"
	 viewBox="0 0 128 80" style="enable-background:new 0 0 128 80;" xml:space="preserve">
<style type="text/css">
	.st0{fill:#121826;}
	.st1{fill:#066ADD;}
</style>
<g>
	<g>
		<path class="st0" d="M99.1,18.7c-16,0-28.9,13.7-28.9,30.5c0,16.8,13,30.5,28.9,30.5c17.9,0,25.1-13.1,25.1-13.1l-2-1.5
			c-3.9-2.9-9.1-3.3-13.3-0.9c-2.2,1.3-5,2.3-8.5,2.3c-14.5,0-15.7-13.3-15.7-13.3h39.5c0,0,3.9,0.4,3.9-4
			C128,32.3,115,18.7,99.1,18.7z M84.6,43.1c0,0,0.9-11.4,14.3-11.4c13.4,0,15.3,11.4,15.3,11.4H84.6z"/>
	</g>
	<g>
		<path class="st1" d="M20.5,8.5C17.6,0,5.6,0,5.6,0s-6.5,0-5.5,2.6c1,2.5,5.4,14,11,28.6c0,0.1,0.1,0.2,0.1,0.3
			c0.7,1.8,5.2,10.1,20.7,10.1C26.5,26,21.2,10.6,20.5,8.5z"/>
		<path class="st0" d="M33.2,45.3c0,0-15.1,4.1-11,14.7l7.3,19.1h1.1c15.4,0,19.7-8.4,20.4-10.2c0,0,24.5-63.8,25.5-66.3
			C77.5,0,71,0,71,0S59,0,56.1,8.5c-0.7,2.1-6,17.5-11.4,33.2l-6.4,18.5C36,53.6,33.2,45.3,33.2,45.3z"/>
	</g>
</g>
</svg>
